# xmcd
#
# Track frame offsets: 
#        150
#        33182
#        84529
#        110782
#        140959
#        191759
#        248619
#        263243
#        290723
#        315467
#        347373
#
# Disc length: 4811 seconds
#
# Revision: 0
# Processed by: cddbd v1.5.2PL0 Copyright (c) Steve Scherf et al.
# Submitted via: ExactAudioCopy v1.0b1
#
DISCID=a312c90b
DTITLE=Stan Webb's Chicken Shack - Stan's Blues
DYEAR=2012
DGENRE=Blues
TTITLE0=So Tell Me
TTITLE1=The Thrill Has Gone
TTITLE2=Reconsider Baby
TTITLE3=I Know You Know Me
TTITLE4=You Are The Sweetest Little Tning - Hurt
TTITLE5=Stan Webb's Chicken Shack Opera
TTITLE6=Spoonful
TTITLE7=Doctor Brown
TTITLE8=I'd Rather Go Blind
TTITLE9=The Daughter Of The Hillside
TTITLE10=Stan's Blues
EXTD=
EXTT0=
EXTT1=
EXTT2=
EXTT3=
EXTT4=
EXTT5=
EXTT6=
EXTT7=
EXTT8=
EXTT9=
EXTT10=
PLAYORDER=
